<mxfile host="app.diagrams.net" agent="Mozilla/5.0 (Windows NT 10.0; Win64; x64) AppleWebKit/537.36 (KHTML, like Gecko) Chrome/130.0.0.0 Safari/537.36" version="24.8.3">
  <diagram name="Page-1" id="ym9xCJt2W32C5rDBdn_t">
    <mxGraphModel dx="1434" dy="738" grid="1" gridSize="10" guides="1" tooltips="1" connect="1" arrows="1" fold="1" page="1" pageScale="1" pageWidth="1600" pageHeight="1600" math="0" shadow="0">
      <root>
        <mxCell id="0" />
        <mxCell id="1" parent="0" />
        <mxCell id="DtF0Jnr45TOtMwILKZpX-1" value="User" style="shape=umlActor;verticalLabelPosition=bottom;verticalAlign=top;html=1;outlineConnect=0;" parent="1" vertex="1">
          <mxGeometry x="785" y="660" width="30" height="60" as="geometry" />
        </mxCell>
        <mxCell id="DtF0Jnr45TOtMwILKZpX-2" value="" style="rounded=0;whiteSpace=wrap;html=1;" parent="1" vertex="1">
          <mxGeometry x="480" y="870" width="430" height="270" as="geometry" />
        </mxCell>
        <mxCell id="DtF0Jnr45TOtMwILKZpX-3" value="&lt;div style=&quot;font-size: 14px;&quot;&gt;Contact&lt;/div&gt;" style="text;html=1;align=center;verticalAlign=middle;whiteSpace=wrap;rounded=0;fontSize=14;" parent="1" vertex="1">
          <mxGeometry x="490" y="870" width="60" height="30" as="geometry" />
        </mxCell>
        <mxCell id="DtF0Jnr45TOtMwILKZpX-8" value="Get Contacts" style="ellipse;whiteSpace=wrap;html=1;fontSize=14;" parent="1" vertex="1">
          <mxGeometry x="780" y="920" width="120" height="80" as="geometry" />
        </mxCell>
        <mxCell id="DtF0Jnr45TOtMwILKZpX-10" value="" style="endArrow=none;html=1;rounded=0;exitX=0.5;exitY=0;exitDx=0;exitDy=0;" parent="1" source="DtF0Jnr45TOtMwILKZpX-8" edge="1">
          <mxGeometry width="50" height="50" relative="1" as="geometry">
            <mxPoint x="790" y="800" as="sourcePoint" />
            <mxPoint x="800" y="750" as="targetPoint" />
          </mxGeometry>
        </mxCell>
        <mxCell id="DtF0Jnr45TOtMwILKZpX-11" value="" style="rounded=0;whiteSpace=wrap;html=1;" parent="1" vertex="1">
          <mxGeometry x="160" y="250" width="480" height="600" as="geometry" />
        </mxCell>
        <mxCell id="DtF0Jnr45TOtMwILKZpX-12" value="&lt;span style=&quot;font-size: 12px;&quot;&gt;Product&lt;/span&gt;" style="text;html=1;align=center;verticalAlign=middle;whiteSpace=wrap;rounded=0;fontSize=14;" parent="1" vertex="1">
          <mxGeometry x="160" y="250" width="60" height="30" as="geometry" />
        </mxCell>
        <mxCell id="DtF0Jnr45TOtMwILKZpX-13" value="Get Wished Products" style="ellipse;whiteSpace=wrap;html=1;fontSize=14;" parent="1" vertex="1">
          <mxGeometry x="450" y="580" width="150" height="50" as="geometry" />
        </mxCell>
        <mxCell id="DtF0Jnr45TOtMwILKZpX-18" value="Get Cart Products" style="ellipse;whiteSpace=wrap;html=1;fontSize=14;" parent="1" vertex="1">
          <mxGeometry x="440" y="730" width="170" height="50" as="geometry" />
        </mxCell>
        <mxCell id="DtF0Jnr45TOtMwILKZpX-19" value="Add &lt;span style=&quot;font-size: 12px;&quot;&gt;Product&amp;nbsp;&lt;/span&gt;to Wished" style="ellipse;whiteSpace=wrap;html=1;fontSize=14;" parent="1" vertex="1">
          <mxGeometry x="180" y="530" width="150" height="50" as="geometry" />
        </mxCell>
        <mxCell id="DtF0Jnr45TOtMwILKZpX-20" value="Remove Product from Wished" style="ellipse;whiteSpace=wrap;html=1;fontSize=14;" parent="1" vertex="1">
          <mxGeometry x="180" y="600" width="150" height="70" as="geometry" />
        </mxCell>
        <mxCell id="DtF0Jnr45TOtMwILKZpX-22" value="&amp;lt;&amp;lt;extend&amp;gt;&amp;gt;" style="endArrow=open;endSize=12;dashed=1;html=1;rounded=0;exitX=1;exitY=0.5;exitDx=0;exitDy=0;entryX=0;entryY=0.5;entryDx=0;entryDy=0;fontSize=12;" parent="1" source="DtF0Jnr45TOtMwILKZpX-20" target="DtF0Jnr45TOtMwILKZpX-13" edge="1">
          <mxGeometry width="160" relative="1" as="geometry">
            <mxPoint x="410" y="730" as="sourcePoint" />
            <mxPoint x="570" y="730" as="targetPoint" />
          </mxGeometry>
        </mxCell>
        <mxCell id="DtF0Jnr45TOtMwILKZpX-23" value="&amp;lt;&amp;lt;extend&amp;gt;&amp;gt;" style="endArrow=open;endSize=12;dashed=1;html=1;rounded=0;exitX=1;exitY=0.5;exitDx=0;exitDy=0;entryX=0;entryY=0.5;entryDx=0;entryDy=0;fontSize=12;" parent="1" source="DtF0Jnr45TOtMwILKZpX-19" target="DtF0Jnr45TOtMwILKZpX-13" edge="1">
          <mxGeometry width="160" relative="1" as="geometry">
            <mxPoint x="370" y="560" as="sourcePoint" />
            <mxPoint x="450" y="490" as="targetPoint" />
          </mxGeometry>
        </mxCell>
        <mxCell id="DtF0Jnr45TOtMwILKZpX-24" value="Add Product to Wished" style="ellipse;whiteSpace=wrap;html=1;fontSize=14;" parent="1" vertex="1">
          <mxGeometry x="180" y="690" width="150" height="50" as="geometry" />
        </mxCell>
        <mxCell id="DtF0Jnr45TOtMwILKZpX-25" value="Remove Product from Favourites" style="ellipse;whiteSpace=wrap;html=1;fontSize=14;" parent="1" vertex="1">
          <mxGeometry x="180" y="760" width="150" height="70" as="geometry" />
        </mxCell>
        <mxCell id="DtF0Jnr45TOtMwILKZpX-26" value="&amp;lt;&amp;lt;extend&amp;gt;&amp;gt;" style="endArrow=open;endSize=12;dashed=1;html=1;rounded=0;entryX=0;entryY=0.5;entryDx=0;entryDy=0;fontSize=12;exitX=1;exitY=0.5;exitDx=0;exitDy=0;" parent="1" source="DtF0Jnr45TOtMwILKZpX-24" target="DtF0Jnr45TOtMwILKZpX-18" edge="1">
          <mxGeometry width="160" relative="1" as="geometry">
            <mxPoint x="390" y="645" as="sourcePoint" />
            <mxPoint x="460" y="615" as="targetPoint" />
          </mxGeometry>
        </mxCell>
        <mxCell id="DtF0Jnr45TOtMwILKZpX-28" value="&amp;lt;&amp;lt;extend&amp;gt;&amp;gt;" style="endArrow=open;endSize=12;dashed=1;html=1;rounded=0;entryX=0;entryY=0.5;entryDx=0;entryDy=0;fontSize=12;exitX=1;exitY=0.5;exitDx=0;exitDy=0;" parent="1" source="DtF0Jnr45TOtMwILKZpX-25" target="DtF0Jnr45TOtMwILKZpX-18" edge="1">
          <mxGeometry x="0.0511" y="-6" width="160" relative="1" as="geometry">
            <mxPoint x="390" y="725" as="sourcePoint" />
            <mxPoint x="450" y="765" as="targetPoint" />
            <mxPoint x="1" as="offset" />
          </mxGeometry>
        </mxCell>
        <mxCell id="DtF0Jnr45TOtMwILKZpX-33" value="Get&amp;nbsp;&lt;span style=&quot;font-size: 12px;&quot;&gt;Products&lt;/span&gt;" style="ellipse;whiteSpace=wrap;html=1;fontSize=14;" parent="1" vertex="1">
          <mxGeometry x="460" y="480" width="150" height="50" as="geometry" />
        </mxCell>
        <mxCell id="DtF0Jnr45TOtMwILKZpX-35" value="Sort&amp;nbsp;&lt;span style=&quot;font-size: 12px;&quot;&gt;Products&lt;/span&gt;" style="ellipse;whiteSpace=wrap;html=1;fontSize=14;" parent="1" vertex="1">
          <mxGeometry x="180" y="430" width="150" height="70" as="geometry" />
        </mxCell>
        <mxCell id="DtF0Jnr45TOtMwILKZpX-36" value="&amp;lt;&amp;lt;extend&amp;gt;&amp;gt;" style="endArrow=open;endSize=12;dashed=1;html=1;rounded=0;exitX=1;exitY=0.5;exitDx=0;exitDy=0;entryX=0;entryY=0.5;entryDx=0;entryDy=0;fontSize=12;" parent="1" source="DtF0Jnr45TOtMwILKZpX-35" target="DtF0Jnr45TOtMwILKZpX-33" edge="1">
          <mxGeometry width="160" relative="1" as="geometry">
            <mxPoint x="410" y="560" as="sourcePoint" />
            <mxPoint x="570" y="560" as="targetPoint" />
          </mxGeometry>
        </mxCell>
        <mxCell id="DtF0Jnr45TOtMwILKZpX-38" value="Admin" style="shape=umlActor;verticalLabelPosition=bottom;verticalAlign=top;html=1;" parent="1" vertex="1">
          <mxGeometry x="785" y="360" width="30" height="60" as="geometry" />
        </mxCell>
        <mxCell id="DtF0Jnr45TOtMwILKZpX-41" value="Delete Product" style="ellipse;whiteSpace=wrap;html=1;" parent="1" vertex="1">
          <mxGeometry x="490" y="280" width="120" height="40" as="geometry" />
        </mxCell>
        <mxCell id="DtF0Jnr45TOtMwILKZpX-42" value="Add Product" style="ellipse;whiteSpace=wrap;html=1;" parent="1" vertex="1">
          <mxGeometry x="350" y="330" width="120" height="40" as="geometry" />
        </mxCell>
        <mxCell id="DtF0Jnr45TOtMwILKZpX-43" value="Update Product" style="ellipse;whiteSpace=wrap;html=1;" parent="1" vertex="1">
          <mxGeometry x="460" y="390" width="120" height="40" as="geometry" />
        </mxCell>
        <mxCell id="DtF0Jnr45TOtMwILKZpX-44" value="" style="endArrow=none;html=1;rounded=0;exitX=1;exitY=0.5;exitDx=0;exitDy=0;" parent="1" source="DtF0Jnr45TOtMwILKZpX-18" edge="1">
          <mxGeometry width="50" height="50" relative="1" as="geometry">
            <mxPoint x="720" y="930" as="sourcePoint" />
            <mxPoint x="760" y="690" as="targetPoint" />
          </mxGeometry>
        </mxCell>
        <mxCell id="DtF0Jnr45TOtMwILKZpX-45" value="" style="endArrow=none;html=1;rounded=0;exitX=1;exitY=0.5;exitDx=0;exitDy=0;" parent="1" source="DtF0Jnr45TOtMwILKZpX-13" edge="1">
          <mxGeometry width="50" height="50" relative="1" as="geometry">
            <mxPoint x="620" y="765" as="sourcePoint" />
            <mxPoint x="760" y="690" as="targetPoint" />
          </mxGeometry>
        </mxCell>
        <mxCell id="DtF0Jnr45TOtMwILKZpX-46" value="" style="endArrow=none;html=1;rounded=0;exitX=1;exitY=0.5;exitDx=0;exitDy=0;" parent="1" source="DtF0Jnr45TOtMwILKZpX-33" edge="1">
          <mxGeometry width="50" height="50" relative="1" as="geometry">
            <mxPoint x="610" y="615" as="sourcePoint" />
            <mxPoint x="760" y="690" as="targetPoint" />
          </mxGeometry>
        </mxCell>
        <mxCell id="DtF0Jnr45TOtMwILKZpX-47" value="" style="endArrow=none;html=1;rounded=0;entryX=1;entryY=0.5;entryDx=0;entryDy=0;" parent="1" target="DtF0Jnr45TOtMwILKZpX-41" edge="1">
          <mxGeometry width="50" height="50" relative="1" as="geometry">
            <mxPoint x="760" y="400" as="sourcePoint" />
            <mxPoint x="760" y="340" as="targetPoint" />
          </mxGeometry>
        </mxCell>
        <mxCell id="DtF0Jnr45TOtMwILKZpX-48" value="" style="endArrow=none;html=1;rounded=0;entryX=1;entryY=0.5;entryDx=0;entryDy=0;" parent="1" target="DtF0Jnr45TOtMwILKZpX-42" edge="1">
          <mxGeometry width="50" height="50" relative="1" as="geometry">
            <mxPoint x="760" y="400" as="sourcePoint" />
            <mxPoint x="600" y="300" as="targetPoint" />
          </mxGeometry>
        </mxCell>
        <mxCell id="DtF0Jnr45TOtMwILKZpX-49" value="" style="endArrow=none;html=1;rounded=0;entryX=1;entryY=0.5;entryDx=0;entryDy=0;" parent="1" target="DtF0Jnr45TOtMwILKZpX-43" edge="1">
          <mxGeometry width="50" height="50" relative="1" as="geometry">
            <mxPoint x="760" y="400" as="sourcePoint" />
            <mxPoint x="620" y="390" as="targetPoint" />
          </mxGeometry>
        </mxCell>
        <mxCell id="DtF0Jnr45TOtMwILKZpX-50" value="" style="rounded=0;whiteSpace=wrap;html=1;" parent="1" vertex="1">
          <mxGeometry x="980" y="250" width="250" height="450" as="geometry" />
        </mxCell>
        <mxCell id="DtF0Jnr45TOtMwILKZpX-51" value="Sign up" style="ellipse;whiteSpace=wrap;html=1;" parent="1" vertex="1">
          <mxGeometry x="1050" y="610" width="120" height="50" as="geometry" />
        </mxCell>
        <mxCell id="DtF0Jnr45TOtMwILKZpX-58" value="Sign in" style="ellipse;whiteSpace=wrap;html=1;" parent="1" vertex="1">
          <mxGeometry x="1050" y="525" width="120" height="50" as="geometry" />
        </mxCell>
        <mxCell id="DtF0Jnr45TOtMwILKZpX-63" value="Log out" style="ellipse;whiteSpace=wrap;html=1;" parent="1" vertex="1">
          <mxGeometry x="1050" y="460" width="120" height="40" as="geometry" />
        </mxCell>
        <mxCell id="DtF0Jnr45TOtMwILKZpX-64" value="Change User Info" style="ellipse;whiteSpace=wrap;html=1;" parent="1" vertex="1">
          <mxGeometry x="1050" y="390" width="120" height="40" as="geometry" />
        </mxCell>
        <mxCell id="DtF0Jnr45TOtMwILKZpX-65" value="" style="endArrow=none;html=1;rounded=0;entryX=0;entryY=0.5;entryDx=0;entryDy=0;" parent="1" target="DtF0Jnr45TOtMwILKZpX-64" edge="1">
          <mxGeometry width="50" height="50" relative="1" as="geometry">
            <mxPoint x="840" y="690" as="sourcePoint" />
            <mxPoint x="910" y="600" as="targetPoint" />
          </mxGeometry>
        </mxCell>
        <mxCell id="DtF0Jnr45TOtMwILKZpX-66" value="" style="endArrow=none;html=1;rounded=0;exitX=0;exitY=0.5;exitDx=0;exitDy=0;" parent="1" source="DtF0Jnr45TOtMwILKZpX-63" edge="1">
          <mxGeometry width="50" height="50" relative="1" as="geometry">
            <mxPoint x="860" y="600" as="sourcePoint" />
            <mxPoint x="840" y="690" as="targetPoint" />
          </mxGeometry>
        </mxCell>
        <mxCell id="DtF0Jnr45TOtMwILKZpX-67" value="" style="endArrow=none;html=1;rounded=0;entryX=0;entryY=0.5;entryDx=0;entryDy=0;" parent="1" target="DtF0Jnr45TOtMwILKZpX-58" edge="1">
          <mxGeometry width="50" height="50" relative="1" as="geometry">
            <mxPoint x="840" y="690" as="sourcePoint" />
            <mxPoint x="880" y="570" as="targetPoint" />
          </mxGeometry>
        </mxCell>
        <mxCell id="DtF0Jnr45TOtMwILKZpX-68" value="" style="endArrow=none;html=1;rounded=0;entryX=0;entryY=0.5;entryDx=0;entryDy=0;" parent="1" target="DtF0Jnr45TOtMwILKZpX-51" edge="1">
          <mxGeometry width="50" height="50" relative="1" as="geometry">
            <mxPoint x="840" y="690" as="sourcePoint" />
            <mxPoint x="880" y="590" as="targetPoint" />
          </mxGeometry>
        </mxCell>
        <mxCell id="DtF0Jnr45TOtMwILKZpX-69" value="Block User" style="ellipse;whiteSpace=wrap;html=1;" parent="1" vertex="1">
          <mxGeometry x="1050" y="320" width="120" height="40" as="geometry" />
        </mxCell>
        <mxCell id="DtF0Jnr45TOtMwILKZpX-70" value="" style="endArrow=none;html=1;rounded=0;entryX=0;entryY=0.5;entryDx=0;entryDy=0;" parent="1" target="DtF0Jnr45TOtMwILKZpX-69" edge="1">
          <mxGeometry width="50" height="50" relative="1" as="geometry">
            <mxPoint x="830" y="400" as="sourcePoint" />
            <mxPoint x="930" y="290" as="targetPoint" />
          </mxGeometry>
        </mxCell>
        <mxCell id="DtF0Jnr45TOtMwILKZpX-71" value="User Account" style="text;html=1;align=center;verticalAlign=middle;whiteSpace=wrap;rounded=0;" parent="1" vertex="1">
          <mxGeometry x="980" y="250" width="90" height="30" as="geometry" />
        </mxCell>
        <mxCell id="DtF0Jnr45TOtMwILKZpX-73" value="" style="rounded=0;whiteSpace=wrap;html=1;" parent="1" vertex="1">
          <mxGeometry x="980" y="720" width="420" height="320" as="geometry" />
        </mxCell>
        <mxCell id="DtF0Jnr45TOtMwILKZpX-74" value="Order" style="text;html=1;align=center;verticalAlign=middle;whiteSpace=wrap;rounded=0;fontSize=14;" parent="1" vertex="1">
          <mxGeometry x="980" y="730" width="60" height="30" as="geometry" />
        </mxCell>
        <mxCell id="DtF0Jnr45TOtMwILKZpX-77" value="Get All Orders" style="ellipse;whiteSpace=wrap;html=1;fontSize=13;" parent="1" vertex="1">
          <mxGeometry x="1000" y="770" width="120" height="80" as="geometry" />
        </mxCell>
        <mxCell id="DtF0Jnr45TOtMwILKZpX-78" value="Filter Ordrers" style="ellipse;whiteSpace=wrap;html=1;fontSize=13;" parent="1" vertex="1">
          <mxGeometry x="1240" y="740" width="120" height="60" as="geometry" />
        </mxCell>
        <mxCell id="DtF0Jnr45TOtMwILKZpX-56" value="&amp;lt;&amp;lt;extend&amp;gt;&amp;gt;" style="endArrow=open;endSize=12;dashed=1;html=1;rounded=0;exitX=0;exitY=0.5;exitDx=0;exitDy=0;entryX=1;entryY=0.5;entryDx=0;entryDy=0;fontSize=12;" parent="1" source="DtF0Jnr45TOtMwILKZpX-78" target="DtF0Jnr45TOtMwILKZpX-77" edge="1">
          <mxGeometry width="160" relative="1" as="geometry">
            <mxPoint x="710" y="550" as="sourcePoint" />
            <mxPoint x="870" y="550" as="targetPoint" />
          </mxGeometry>
        </mxCell>
        <mxCell id="DtF0Jnr45TOtMwILKZpX-79" value="Get Available Delivery Addresses" style="ellipse;whiteSpace=wrap;html=1;fontSize=13;" parent="1" vertex="1">
          <mxGeometry x="1010" y="920" width="130" height="80" as="geometry" />
        </mxCell>
        <mxCell id="DtF0Jnr45TOtMwILKZpX-80" value="Get Delivery Info" style="ellipse;whiteSpace=wrap;html=1;fontSize=13;" parent="1" vertex="1">
          <mxGeometry x="1235" y="920" width="130" height="80" as="geometry" />
        </mxCell>
        <mxCell id="DtF0Jnr45TOtMwILKZpX-81" value="&amp;lt;&amp;lt;include&amp;gt;&amp;gt;" style="endArrow=open;endSize=12;dashed=1;html=1;rounded=0;exitX=1;exitY=0.5;exitDx=0;exitDy=0;entryX=0;entryY=0.5;entryDx=0;entryDy=0;fontSize=12;" parent="1" source="DtF0Jnr45TOtMwILKZpX-79" target="DtF0Jnr45TOtMwILKZpX-80" edge="1">
          <mxGeometry width="160" relative="1" as="geometry">
            <mxPoint x="1250" y="820" as="sourcePoint" />
            <mxPoint x="1130" y="820" as="targetPoint" />
          </mxGeometry>
        </mxCell>
        <mxCell id="DtF0Jnr45TOtMwILKZpX-82" value="" style="endArrow=none;html=1;rounded=0;entryX=0;entryY=0.5;entryDx=0;entryDy=0;" parent="1" target="DtF0Jnr45TOtMwILKZpX-77" edge="1">
          <mxGeometry width="50" height="50" relative="1" as="geometry">
            <mxPoint x="840" y="720" as="sourcePoint" />
            <mxPoint x="940" y="730" as="targetPoint" />
          </mxGeometry>
        </mxCell>
        <mxCell id="DtF0Jnr45TOtMwILKZpX-83" value="" style="endArrow=none;html=1;rounded=0;entryX=0;entryY=0.5;entryDx=0;entryDy=0;" parent="1" target="DtF0Jnr45TOtMwILKZpX-79" edge="1">
          <mxGeometry width="50" height="50" relative="1" as="geometry">
            <mxPoint x="840" y="720" as="sourcePoint" />
            <mxPoint x="990" y="840" as="targetPoint" />
          </mxGeometry>
        </mxCell>
        <mxCell id="DtF0Jnr45TOtMwILKZpX-84" value="Get Shop Info" style="ellipse;whiteSpace=wrap;html=1;fontSize=14;" parent="1" vertex="1">
          <mxGeometry x="510" y="940" width="120" height="80" as="geometry" />
        </mxCell>
        <mxCell id="DtF0Jnr45TOtMwILKZpX-85" value="Send Feedback" style="ellipse;whiteSpace=wrap;html=1;fontSize=14;" parent="1" vertex="1">
          <mxGeometry x="640" y="1000" width="120" height="80" as="geometry" />
        </mxCell>
        <mxCell id="DtF0Jnr45TOtMwILKZpX-86" value="" style="endArrow=none;html=1;rounded=0;exitX=0.5;exitY=0;exitDx=0;exitDy=0;" parent="1" source="DtF0Jnr45TOtMwILKZpX-84" edge="1">
          <mxGeometry width="50" height="50" relative="1" as="geometry">
            <mxPoint x="580" y="930" as="sourcePoint" />
            <mxPoint x="800" y="750" as="targetPoint" />
          </mxGeometry>
        </mxCell>
        <mxCell id="DtF0Jnr45TOtMwILKZpX-87" value="" style="endArrow=none;html=1;rounded=0;exitX=0.5;exitY=0;exitDx=0;exitDy=0;" parent="1" source="DtF0Jnr45TOtMwILKZpX-85" edge="1">
          <mxGeometry width="50" height="50" relative="1" as="geometry">
            <mxPoint x="620" y="1020" as="sourcePoint" />
            <mxPoint x="800" y="750" as="targetPoint" />
            <Array as="points">
              <mxPoint x="760" y="900" />
            </Array>
          </mxGeometry>
        </mxCell>
        <mxCell id="DtF0Jnr45TOtMwILKZpX-88" value="Get Detailed Info" style="ellipse;whiteSpace=wrap;html=1;fontSize=13;" parent="1" vertex="1">
          <mxGeometry x="1240" y="820" width="120" height="60" as="geometry" />
        </mxCell>
        <mxCell id="DtF0Jnr45TOtMwILKZpX-89" value="&amp;lt;&amp;lt;extend&amp;gt;&amp;gt;" style="endArrow=open;endSize=12;dashed=1;html=1;rounded=0;exitX=0;exitY=0.5;exitDx=0;exitDy=0;fontSize=12;" parent="1" source="DtF0Jnr45TOtMwILKZpX-88" edge="1">
          <mxGeometry width="160" relative="1" as="geometry">
            <mxPoint x="710" y="620" as="sourcePoint" />
            <mxPoint x="1120" y="810" as="targetPoint" />
          </mxGeometry>
        </mxCell>
      </root>
    </mxGraphModel>
  </diagram>
</mxfile>
